<svg xmlns="http://www.w3.org/2000/svg" viewBox="0 0 838.48 840.23"><defs><style>.cls-1{fill:#005c9d;}.cls-2{fill:#fff;}</style></defs><g id="Object"><path class="cls-1" d="M169.47,169.06a30.33,30.33,0,0,0-27.71,30.24V894.23a30.31,30.31,0,0,0,25.06,29.91L484,980.64a30.37,30.37,0,0,0,35.69-29.88V171.25A30.34,30.34,0,0,0,486.64,141ZM436.54,602.53c-13.05,0-23.65-18.62-23.65-41.54s10.6-41.52,23.65-41.52S460.21,538,460.21,561,449.61,602.53,436.54,602.53Z" transform="translate(-141.76 -140.88)"/><polygon points="838.48 403.84 590.57 219.77 590.57 315.26 397.96 315.26 397.96 491.28 590.57 491.28 590.57 586.74 838.48 403.84"/><path class="cls-2" d="M412.89,561c0,22.92,10.6,41.54,23.65,41.54s23.67-18.62,23.67-41.54-10.6-41.52-23.67-41.52S412.89,538,412.89,561Z" transform="translate(-141.76 -140.88)"/><path class="cls-1" d="M710.75,429.08V191.5a23.68,23.68,0,0,0-23.63-23.68H539.72v47.32H663.45V429.08Z" transform="translate(-141.76 -140.88)"/><path class="cls-1" d="M539.72,906.86v47.32h147.4a23.69,23.69,0,0,0,23.63-23.68V657.79h-47.3V906.86Z" transform="translate(-141.76 -140.88)"/></g></svg>