<svg xmlns="http://www.w3.org/2000/svg" viewBox="0 0 1122 1122"><defs><style>.cls-1{fill:#fff;}.cls-2{fill:#72716f;}.cls-3{fill:#f2cb30;}.cls-4{fill:#eab531;}.cls-5{fill:#58595a;}.cls-6{fill:#f7db5e;}.cls-7{fill:#3e3d40;}</style></defs><g id="BG"><rect class="cls-1" width="1122" height="1122"/></g><g id="Object"><path class="cls-2" d="M813.59,614.47H743.77V383.58c0-100.78-82-182.77-182.77-182.77s-182.77,82-182.77,182.77V614.47H308.41V383.58C308.41,244.3,421.72,131,561,131S813.59,244.3,813.59,383.58Z"/><rect class="cls-3" x="201.52" y="504.91" width="718.96" height="486.1" rx="27.08"/><path class="cls-4" d="M920.48,963.94V699.27C701.46,884.58,385.66,954.2,206.7,979.75A27,27,0,0,0,228.6,991H893.4A27.07,27.07,0,0,0,920.48,963.94Z"/><path class="cls-5" d="M620.41,674.75a59.41,59.41,0,1,0-94.74,47.69L506.76,856.79H615.24L596.33,722.44A59.27,59.27,0,0,0,620.41,674.75Z"/><path class="cls-6" d="M224.19,556.13v93c2.46-39.5,21.47-125.45,140.36-125.45H256.62A32.52,32.52,0,0,0,224.19,556.13Z"/><path class="cls-7" d="M506.76,856.79S587.27,834,596.33,722.44l18.91,134.35Z"/></g></svg>