<svg id="Layer_1" data-name="Layer 1" xmlns="http://www.w3.org/2000/svg" xmlns:xlink="http://www.w3.org/1999/xlink" viewBox="0 0 543.06 543.06"><defs><style>.cls-1{fill:url(#linear-gradient);}.cls-2{fill:url(#linear-gradient-2);}</style><linearGradient id="linear-gradient" x1="348.09" y1="348.09" x2="731.91" y2="731.91" gradientUnits="userSpaceOnUse"><stop offset="0" stop-color="#fcfcfc"/><stop offset="1" stop-color="#e6e6e6"/></linearGradient><linearGradient id="linear-gradient-2" x1="693.58" y1="666.29" x2="437.91" y2="410.62" gradientUnits="userSpaceOnUse"><stop offset="0" stop-color="#396eb5"/><stop offset="0.24" stop-color="#3765af"/><stop offset="0.63" stop-color="#324d9e"/><stop offset="1" stop-color="#2b3089"/></linearGradient></defs><path class="cls-1" d="M540,811.53c-149.71,0-271.52-121.81-271.52-271.52S390.28,268.47,540,268.47,811.53,390.28,811.53,540,689.72,811.53,540,811.53Z" transform="translate(-268.47 -268.47)"/><path class="cls-2" d="M572.3,726V563.25h54.27l10.33-67.33H572.3V452.23c0-18.42,9-36.37,38-36.37h29.37V358.54S613,354,587.49,354c-53.2,0-88,32.24-88,90.62v51.31H440.37v67.33h59.14V726Z" transform="translate(-268.47 -268.47)"/></svg>